<svg width="16" height="16" viewBox="0 0 16 16" fill="none" xmlns="http://www.w3.org/2000/svg">
<path d="M13 15.0392C12.166 15.0534 11.4342 15.0676 10.7923 15.0818C10.9027 15.0344 10.9191 14.9824 10.9191 14.9824C10.9191 14.9824 10.9681 14.9066 10.7923 14.8214C10.6165 14.7362 10.4448 14.509 10.3385 14.5232C10.2363 14.5374 10.1341 14.58 10.0687 14.58C10.0687 14.58 10.1995 14.509 10.2649 14.438C10.2649 14.438 9.93377 14.5564 9.74162 14.4617C9.74162 14.4617 9.88062 14.3907 10.0074 14.2961C10.0074 14.2961 9.99101 14.1635 9.84383 14.1967C9.69665 14.2251 9.61079 14.3103 9.4677 14.3197C9.32461 14.3292 9.25102 14.3008 9.25102 14.3008C9.25102 14.3008 9.435 14.173 9.56991 14.1162C9.68029 14.0689 9.86427 14.0452 9.86427 14.0452C9.89697 14.0263 10.0074 13.6713 10.5756 12.611C10.6738 12.4312 10.8496 12.1425 10.9763 11.9295C11.0989 11.7212 11.2011 11.4656 11.1848 11.3047C11.1684 11.1343 11.0049 10.4196 10.6983 10.1734C10.3957 9.92732 10.2404 9.79006 10.2404 9.79006C10.2404 9.79006 10.4775 9.87526 10.6492 10.0078C10.8209 10.1403 10.9477 10.1403 10.9477 10.1403C10.9477 10.1403 10.8332 9.89419 10.7923 9.79006C10.7514 9.68593 10.3426 9.44927 10.2077 9.41141C10.0769 9.37354 9.56173 9.73326 9.45544 9.92259C9.47179 9.84686 9.50041 9.77586 9.53312 9.72379C9.6435 9.55813 9.97874 9.33567 9.97874 9.33567C9.97874 9.33567 9.31235 9.5676 9.08749 9.90839C9.08749 9.90839 9.37367 9.35461 9.86836 9.12741C10.1627 8.99015 10.4571 9.00908 10.4571 9.00908C10.3017 8.71563 9.79885 8.01038 9.79477 8.01038C9.35323 7.90625 8.45789 8.10504 8.45789 8.10504C8.60916 7.98198 9.0834 7.88258 9.33688 7.83525C9.435 7.81632 9.5045 7.80685 9.5045 7.80685C9.5045 7.80685 9.5045 7.77845 9.50041 7.72639C9.48406 7.50866 9.37367 6.54309 9.22649 6.06977C9.02208 5.40713 8.80131 4.89121 8.80131 4.89121C8.80131 4.89121 9.0834 5.2178 9.36958 5.68165C9.56173 5.99404 9.68438 6.54783 9.68438 6.54783C9.59853 5.47339 8.88307 4.2333 8.88307 4.2333C9.26329 4.57409 9.6067 5.09947 9.83156 5.54439C9.7825 4.56462 9.54129 3.71265 9.2224 3.46652C9.33279 3.54699 9.60262 3.75051 9.7498 4.01557C9.7498 4.01557 10.0155 3.59432 10.1464 3.42392C10.3262 3.192 10.5061 3.04527 10.5061 3.04527C10.5061 3.04527 10.498 3.0216 10.4816 2.98374C10.5102 2.9506 10.5388 2.91274 10.5715 2.87487C10.7473 2.68555 10.7841 2.57668 10.7841 2.57668C10.6942 2.64768 10.5348 2.69028 10.5348 2.69028C10.5348 2.69028 10.7024 2.55302 10.8087 2.41102C10.915 2.27376 10.9804 2.18383 10.9804 2.18383C10.9354 2.31636 10.9068 2.45362 10.9068 2.45362C10.9886 2.40629 11.2011 2.30216 11.3688 2.0087C11.5364 1.71051 11.798 1.30345 11.9043 1.14726C12.0106 0.991064 12.1415 0.740205 12.1415 0.740205C12.1415 0.834869 12.1578 0.995797 12.1578 0.995797C12.1946 0.948465 12.3663 0.787537 12.3868 0.768604C12.4481 0.726006 12.5953 0.707073 12.6198 0.68814C12.6607 0.650275 12.6648 0.565077 12.6648 0.565077C12.6361 0.607676 12.5666 0.617142 12.5666 0.617142C12.5871 0.574544 12.6402 0.574543 12.628 0.46568C12.6198 0.404149 12.5748 0.356817 12.5748 0.356817C12.5748 0.356817 12.5993 0.579277 12.5258 0.58401L12.35 0.607676C12.35 0.607676 12.4563 0.560344 12.4808 0.503546C12.5053 0.451481 12.4726 0.295286 12.444 0.25742C12.4113 0.224288 12.3091 0.186422 12.3254 0.181689C12.3418 0.176956 12.4808 0.124891 12.5339 0.115425C12.5871 0.105958 12.628 0.0633594 12.5748 0.0302271C12.5217 -0.0029052 12.3295 0.00182806 12.3295 0.00182806C12.2396 -0.0171047 12.1169 0.115424 12.0638 0.195889C12.0106 0.276353 12.0352 0.408882 12.0106 0.565077C11.9861 0.726006 11.7408 0.995797 11.7408 0.995797C11.7817 0.8964 11.8021 0.740205 11.8021 0.740205C11.8021 0.740205 11.5405 1.02893 11.2461 1.13779C10.9518 1.24666 10.5675 1.66318 10.3876 1.89037C10.3017 1.99923 10.1791 2.0797 10.0523 2.1507C10.22 2.24063 10.2976 2.51515 10.3303 2.63821C10.3385 2.67135 10.3426 2.69501 10.3467 2.69974C10.3467 2.69974 10.2118 2.49622 10.0728 2.40155C9.98283 2.34002 9.89697 2.29742 9.82747 2.27376C9.77433 2.25482 9.73344 2.24063 9.70891 2.23589L9.10384 2.46309C9.0834 2.42049 9.03843 2.38735 9.03843 2.38735C9.03434 2.51515 8.94849 2.88907 8.77678 3.09733C8.74407 3.13993 8.69501 3.18253 8.65004 3.22039C8.58872 3.24879 8.53148 3.13993 8.54374 3.10207C8.55192 3.0784 8.64186 3.05947 8.64186 3.05947C8.64186 3.05947 8.59689 3.0358 8.5601 3.0358C8.51104 3.0358 8.46198 3.03107 8.46198 3.03107C8.46198 3.03107 8.54374 2.979 8.60507 2.97427C8.66639 2.96954 8.75634 2.94587 8.75634 2.94587C8.75634 2.94587 8.69092 2.91747 8.63369 2.89854C8.57236 2.87961 8.47833 2.87014 8.47833 2.87014C8.47833 2.87014 8.47833 2.87014 8.51513 2.82754C8.55192 2.78494 8.65004 2.71394 8.65004 2.71394L8.53966 2.32582C8.53966 2.32582 8.49469 2.28796 8.44154 2.27849C8.38839 2.26902 8.22486 2.19803 8.22486 2.19803L8.44971 2.20276L8.36386 1.73417C8.36386 1.73417 8.5233 1.76731 8.61733 1.74364C8.70728 1.72471 8.92396 1.56851 8.92396 1.56851L9.05478 1.91877C9.05478 1.91877 9.04661 1.71524 9.03434 1.63004C9.02208 1.54485 8.95258 1.22772 8.91987 1.16146C8.86263 1.05733 8.73998 0.995797 8.73998 0.995797C8.40065 0.834869 7.86509 0.886934 7.67294 1.27506C7.6157 1.39339 7.56664 1.56851 7.64023 1.84777C7.68929 2.0229 7.722 2.07496 7.722 2.07496C7.722 2.07496 7.59526 2.08916 7.59117 2.14596C7.58708 2.20749 7.6157 2.38262 7.6852 2.46782C7.7547 2.55302 7.85282 2.63348 7.85282 2.63348C7.85282 2.63348 7.85282 2.63348 7.8937 2.77074C7.90597 2.80861 7.92232 2.85594 7.94276 2.90327C7.86917 2.99794 7.74653 3.1352 7.62388 3.21093C7.42764 3.32926 7.14554 3.53279 7.12919 3.54699C7.04742 3.60378 6.98201 3.65585 6.94522 3.70318C7.05969 3.65112 7.19051 3.60378 7.3009 3.56118C7.42764 3.51385 7.52576 3.48072 7.52576 3.48072C7.52576 3.48072 7.48896 3.51385 7.42764 3.56592C7.35405 3.62745 7.24775 3.70791 7.11284 3.79784C6.8798 3.94931 6.59771 4.25696 6.4628 4.45102C6.27882 4.73501 6.11529 4.98587 6.11529 4.98587C6.11529 4.98587 6.1807 5.01901 6.26247 5.07107C6.20523 5.26513 6.0785 5.70059 6.00899 5.82365C5.91905 5.97984 5.82093 6.1739 5.82093 6.1739L5.92314 6.1455C6.05397 6.14077 6.16844 6.23544 6.16844 6.23544C6.16844 6.23544 5.84546 6.41056 5.65331 6.71349C5.46116 7.01641 5.45707 7.40453 5.45707 7.40453C5.40801 7.34773 5.28128 7.21047 5.21586 7.13474C5.21177 7.14894 5.20769 7.16314 5.2036 7.17734C5.19951 7.18681 5.19542 7.19627 5.19542 7.20574C5.22404 7.34774 5.2731 7.57966 5.31807 7.66959C5.43254 7.89205 5.65331 8.05771 5.65331 8.05771C5.65331 8.05771 5.19133 7.82105 5.06051 7.61753C5.06051 7.61753 5.13001 7.87312 5.24448 8.04351C5.22404 8.03878 5.2036 8.02931 5.18316 8.01985C5.10548 7.98672 5.0278 7.92045 4.96239 7.84472C4.95421 7.98672 4.98283 8.05771 5.04415 8.10504C5.11774 8.16184 5.13001 8.21391 5.20769 8.22337C5.28536 8.23284 5.25266 8.23284 5.35486 8.30384C5.45707 8.3701 5.41619 8.24704 5.52249 8.28017C5.62878 8.31804 5.63696 8.24231 5.63696 8.24231C5.63696 8.24231 5.71872 8.30384 5.75552 8.25177C5.78823 8.19498 5.78005 8.10978 5.80458 7.94885C5.82911 7.78792 5.79231 7.79265 5.72281 7.69799C5.6574 7.60333 5.58381 7.48973 5.58381 7.48973C5.58381 7.48973 5.61243 7.3288 5.7269 7.18207C5.84137 7.03061 6.0417 6.88862 6.15617 6.76082C6.28291 6.62356 6.287 6.49576 6.36059 6.3727C6.43827 6.18337 6.41782 6.13604 6.4955 5.95618C6.50777 5.92304 6.70809 5.71005 6.67948 5.63905C6.6018 5.46393 6.51594 5.30773 6.44235 5.1894C6.46688 5.20833 6.49141 5.232 6.51186 5.25093C6.66312 5.39766 6.81848 5.58226 6.81848 5.58226C6.81848 5.58226 6.94522 5.41186 7.0556 5.27933C7.0556 5.27933 7.26819 5.06161 7.64841 4.55515C7.64841 4.55515 7.46852 5.0758 7.37449 5.32666C7.37449 5.3314 7.3704 5.33613 7.3704 5.34086C7.53393 5.2036 7.70564 5.03794 7.70564 5.03794C7.70564 5.03794 7.29681 5.79525 7.20278 6.24017C7.1946 6.4011 7.26002 6.90282 7.21504 7.19627C7.23957 7.18207 7.26002 7.17261 7.28455 7.16314C7.58708 7.03534 8 7.04481 8 7.04481C7.8937 7.06374 7.76288 7.11107 7.62796 7.17261C7.37858 7.2862 7.12101 7.4566 7.01472 7.59859L7.00245 7.60806C6.94113 7.71219 6.89207 7.80685 6.86754 7.86839C6.86754 7.86839 7.00654 7.73586 7.24775 7.65539L7.24366 7.66012C7.3704 7.61753 7.6157 7.55126 7.91415 7.50393C8.278 7.45186 8.74407 7.54653 8.90352 7.58439C8.94031 7.59386 8.96075 7.59859 8.96075 7.59859C8.94849 7.59859 8.94031 7.59859 8.92805 7.59859C8.46198 7.56546 8.13491 7.57966 7.66885 7.73586C7.53393 7.78319 7.34178 7.87785 7.16599 7.97252L7.1619 7.96778C7.1619 7.96778 7.03107 8.03878 6.89616 8.11924C6.83483 8.15238 6.77351 8.19024 6.72854 8.22337C6.69583 8.24704 6.66721 8.26597 6.64677 8.28017C6.58545 8.33224 6.51186 8.61623 6.45871 8.84342C6.2502 9.20314 6.00491 9.61493 6.00491 9.61493C6.00491 9.61493 5.69419 10.093 5.63287 10.2397C5.63287 10.2397 5.48569 10.3107 5.25675 10.4764C5.25675 10.4764 5.40801 10.2208 5.6206 10.1356C5.6206 10.1356 5.42437 10.0741 5.33034 10.1356C5.33034 10.1356 5.37939 9.96045 5.58381 9.91312C5.58381 9.91312 5.43254 9.65753 5.24448 9.53447C5.17907 9.49187 5.12592 9.43034 5.07686 9.36407C5.04415 9.21734 5.12183 9.19368 5.1668 9.07061C5.21995 8.90969 5.17498 8.80082 5.04824 8.74403C4.9215 8.69196 4.55356 8.79609 4.55356 8.79609C4.55356 8.79609 4.74571 8.65409 4.89289 8.63989C4.89289 8.63989 4.52085 8.60203 4.15699 8.49317C3.85446 8.40323 3.61325 8.4127 3.38839 8.5121C3.20033 8.59256 3.31071 8.83396 3.41701 8.92389C3.5233 9.01382 3.66231 9.08955 3.66231 9.08955C3.66231 9.08955 3.60916 8.91915 3.78496 8.83396C3.78496 8.83396 3.71545 9.01855 3.75225 9.16055L3.82993 9.21261C3.82993 9.21261 3.79313 8.98542 3.98119 8.88602C3.98119 8.88602 3.88716 9.13215 3.91987 9.26941L4.05478 9.32621C4.05478 9.32621 4.06296 8.99015 4.25102 8.90969C4.25102 8.90969 4.14881 9.20788 4.2224 9.35461C4.2592 9.4256 4.32461 9.46347 4.42682 9.4824C4.45544 9.52027 4.48406 9.5534 4.5045 9.58653C4.574 9.71433 4.61079 10.2018 4.77433 10.5521C4.93786 10.8976 5.21586 11.4183 5.50613 11.5177C5.7964 11.6123 6.11938 11.4088 6.38103 11.1437L6.62224 10.8787C6.62224 10.8787 6.39329 10.7935 6.23794 10.5758C6.23794 10.5758 6.3933 10.6136 6.48733 10.6468C6.58136 10.6846 6.82257 10.7083 6.82257 10.7083C6.82257 10.7083 6.47915 10.429 6.36468 10.3202C6.29926 10.2586 6.24612 10.022 6.21341 9.83739C6.43827 10.0835 6.78577 10.4574 6.93704 10.571C7.22731 10.7888 7.35405 10.7651 7.35405 10.7651C7.35405 10.7651 7.90597 10.0125 8.08994 9.84686C8.08994 9.84686 7.55846 9.93679 7.14963 9.95099C7.14963 9.95099 7.7547 9.72379 8.06541 9.55813C8.06541 9.55813 7.62388 9.48714 7.41946 9.54393C7.41946 9.54393 7.95094 9.39247 8.32298 9.19368C8.69501 8.99962 9.39411 8.72036 9.61079 8.72509C9.61079 8.72509 8.8381 8.96649 8.57645 9.31674C8.57645 9.31674 8.85446 9.25994 9.00981 9.28834C9.00981 9.28834 8.47833 9.71906 8.40883 9.83266C8.40883 9.83266 8.83401 10.3486 9.07522 10.6278C9.31643 10.9071 9.67621 10.9876 9.67621 10.9876C9.67621 10.9876 9.57809 10.8503 9.48406 10.5284C9.44726 10.4054 9.43091 10.2823 9.42682 10.1687C9.45135 10.287 9.51676 10.4196 9.59444 10.5663C9.69256 10.7414 10.0769 11.21 10.1096 11.2763C10.3344 11.0775 10.502 11.0775 10.502 11.0775C10.3998 11.1532 10.175 11.4088 10.175 11.4088C10.175 11.4088 9.80294 11.9342 9.68438 12.2371C9.56582 12.5448 9.41864 13.179 9.34505 13.3399C9.34505 13.3399 9.82747 12.5258 9.99101 12.2182C9.99101 12.2182 9.72118 12.9471 9.50859 13.4062C9.30826 13.8417 9.18561 14.0973 9.12837 14.2109C9.08749 14.2913 9.05069 14.3671 8.99346 14.4901C8.98937 14.4901 8.98937 14.4948 8.98528 14.4996C8.95666 14.5564 8.92805 14.6179 8.9076 14.67C8.89943 14.6889 8.89125 14.7078 8.88716 14.7268C8.87899 14.7552 8.75634 15.006 8.92396 15.096C6.1807 15.148 6.16844 15.148 5.97629 15.1528C5.79231 15.4226 5.51022 15.5929 5.18724 15.5929C4.99918 15.5929 4.8193 15.5314 4.66803 15.4273C4.79477 15.4983 4.93377 15.5361 5.08095 15.5361C5.37122 15.5361 5.62878 15.3894 5.80458 15.1575C5.95585 14.9587 6.04988 14.6984 6.04988 14.4096C6.04988 14.031 5.89043 13.6997 5.64513 13.4961C5.63696 13.4961 4.96648 13.463 4.63532 14.031C4.63532 14.031 4.67621 13.6003 4.91333 13.3541C4.92968 13.3352 4.94603 13.321 4.96239 13.3068C4.92559 13.3257 4.89289 13.3494 4.85609 13.3731C4.5372 13.6003 4.31643 14.0026 4.31643 14.67C4.31643 14.67 4.20605 14.3292 4.30826 13.8985C4.33279 13.7943 4.36958 13.6855 4.42273 13.5766C4.23058 13.7801 4.10793 14.0783 4.10793 14.4049C4.10793 14.8072 4.29191 15.1575 4.56582 15.3563L3 16L13 15.0392Z" fill="#FE5C4D"/>
<path d="M9.04238 2.15039C9.04238 2.15039 8.97685 2.19776 8.88265 2.23092C8.78435 2.26882 8.63281 2.29724 8.63281 2.29724C8.63281 2.29724 8.66967 2.38724 8.76797 2.40619C8.82121 2.41566 8.97685 2.35882 8.97685 2.35882C8.93999 2.35882 8.89084 2.3304 8.89084 2.3304C8.94409 2.30671 9.04238 2.15039 9.04238 2.15039Z" fill="#FE5C4D"/>
</svg>
